<svg width="607" height="188" viewBox="0 0 607 188" fill="none" xmlns="http://www.w3.org/2000/svg">
<path d="M31.9176 43.9174C37.5181 33.717 45.9027 25.3187 56.0939 19.7015C69.1583 12.5005 84.3979 10.3034 98.9644 13.5207L116.642 17.425L116.652 17.4273L148.119 25.0584C149.349 25.3566 150.564 24.5176 150.721 23.262C150.815 22.5099 151.614 22.0669 152.302 22.3854L173.273 32.0978C174.191 32.5234 175.143 32.8748 176.118 33.1487L179.942 34.223C187.545 36.3591 195.465 37.1434 203.339 36.5403L245.185 33.3352C249.828 32.9796 253.696 29.6385 254.724 25.0968C255.344 22.3546 257.134 20.0216 259.622 18.7124L262.558 17.1674C267.611 14.5088 273.667 14.5967 278.64 17.401L301.544 30.3155C311.447 35.8995 322.623 38.8333 333.992 38.8333H344.243C359.307 38.8333 374.084 42.9579 386.97 50.7596L410.85 65.2165C416.027 68.351 420.843 72.0456 425.213 76.2337L459.557 109.155C464.209 113.615 469.362 117.522 474.914 120.796L500.413 135.838C501.406 136.424 502.444 136.928 503.518 137.345C524.424 145.465 518.609 176.5 496.182 176.5H429.795H106.937C71.9815 176.5 40.82 154.47 29.1613 121.516L24.8768 109.405C17.668 89.0286 19.494 66.5446 29.8965 47.5984L31.9176 43.9174Z" fill="#7D7FAA"/>
<path d="M31.9176 43.9174C37.5181 33.717 45.9027 25.3187 56.0939 19.7015C69.1583 12.5005 84.3979 10.3034 98.9644 13.5207L116.642 17.425L116.652 17.4273L148.119 25.0584C149.349 25.3566 150.564 24.5176 150.721 23.262C150.815 22.5099 151.614 22.0669 152.302 22.3854L173.273 32.0978C174.191 32.5234 175.143 32.8748 176.118 33.1487L179.942 34.223C187.545 36.3591 195.465 37.1434 203.339 36.5403L245.185 33.3352C249.828 32.9796 253.696 29.6385 254.724 25.0968C255.344 22.3546 257.134 20.0216 259.622 18.7124L262.558 17.1674C267.611 14.5088 273.667 14.5967 278.64 17.401L301.544 30.3155C311.447 35.8995 322.623 38.8333 333.992 38.8333H344.243C359.307 38.8333 374.084 42.9579 386.97 50.7596L410.85 65.2165C416.027 68.351 420.843 72.0456 425.213 76.2337L459.557 109.155C464.209 113.615 469.362 117.522 474.914 120.796L500.413 135.838C501.406 136.424 502.444 136.928 503.518 137.345C524.424 145.465 518.609 176.5 496.182 176.5H429.795H106.937C71.9815 176.5 40.82 154.47 29.1613 121.516L24.8768 109.405C17.668 89.0286 19.494 66.5446 29.8965 47.5984L31.9176 43.9174Z" fill="black" fill-opacity="0.2"/>
<path d="M31.9176 43.9174C37.5181 33.717 45.9027 25.3187 56.0939 19.7015C69.1583 12.5005 84.3979 10.3034 98.9644 13.5207L116.642 17.425L116.652 17.4273L148.119 25.0584C149.349 25.3566 150.564 24.5176 150.721 23.262C150.815 22.5099 151.614 22.0669 152.302 22.3854L173.273 32.0978C174.191 32.5234 175.143 32.8748 176.118 33.1487L179.942 34.223C187.545 36.3591 195.465 37.1434 203.339 36.5403L245.185 33.3352C249.828 32.9796 253.696 29.6385 254.724 25.0968C255.344 22.3546 257.134 20.0216 259.622 18.7124L262.558 17.1674C267.611 14.5088 273.667 14.5967 278.64 17.401L301.544 30.3155C311.447 35.8995 322.623 38.8333 333.992 38.8333H344.243C359.307 38.8333 374.084 42.9579 386.97 50.7596L410.85 65.2165C416.027 68.351 420.843 72.0456 425.213 76.2337L459.557 109.155C464.209 113.615 469.362 117.522 474.914 120.796L500.413 135.838C501.406 136.424 502.444 136.928 503.518 137.345C524.424 145.465 518.609 176.5 496.182 176.5H429.795H106.937C71.9815 176.5 40.82 154.47 29.1613 121.516L24.8768 109.405C17.668 89.0286 19.494 66.5446 29.8965 47.5984L31.9176 43.9174Z" stroke="black"/>
<path d="M354.5 40.5C354.5 51.4931 348.615 61.482 339.028 68.7392C329.441 75.9966 316.175 80.5 301.5 80.5C286.825 80.5 273.559 75.9966 263.972 68.7392C254.385 61.482 248.5 51.4931 248.5 40.5C248.5 29.5069 254.385 19.518 263.972 12.2608C273.559 5.00339 286.825 0.5 301.5 0.5C316.175 0.5 329.441 5.00339 339.028 12.2608C348.615 19.518 354.5 29.5069 354.5 40.5Z" fill="#7D7FAA"/>
<path d="M354.5 40.5C354.5 51.4931 348.615 61.482 339.028 68.7392C329.441 75.9966 316.175 80.5 301.5 80.5C286.825 80.5 273.559 75.9966 263.972 68.7392C254.385 61.482 248.5 51.4931 248.5 40.5C248.5 29.5069 254.385 19.518 263.972 12.2608C273.559 5.00339 286.825 0.5 301.5 0.5C316.175 0.5 329.441 5.00339 339.028 12.2608C348.615 19.518 354.5 29.5069 354.5 40.5Z" fill="black" fill-opacity="0.2"/>
<path d="M354.5 40.5C354.5 51.4931 348.615 61.482 339.028 68.7392C329.441 75.9966 316.175 80.5 301.5 80.5C286.825 80.5 273.559 75.9966 263.972 68.7392C254.385 61.482 248.5 51.4931 248.5 40.5C248.5 29.5069 254.385 19.518 263.972 12.2608C273.559 5.00339 286.825 0.5 301.5 0.5C316.175 0.5 329.441 5.00339 339.028 12.2608C348.615 19.518 354.5 29.5069 354.5 40.5Z" stroke="black"/>
<path d="M201.5 84.5309C201.482 135.286 156.536 176.5 101 176.5C45.4531 176.5 0.5 135.27 0.5 84.5C0.5 59.0863 9.50213 40.115 25.3933 27.484C41.302 14.8392 64.1766 8.5 92 8.5C149.347 8.5 196.025 40.3951 201.5 84.5309Z" fill="#7D7FAA"/>
<path d="M201.5 84.5309C201.482 135.286 156.536 176.5 101 176.5C45.4531 176.5 0.5 135.27 0.5 84.5C0.5 59.0863 9.50213 40.115 25.3933 27.484C41.302 14.8392 64.1766 8.5 92 8.5C149.347 8.5 196.025 40.3951 201.5 84.5309Z" fill="black" fill-opacity="0.2"/>
<path d="M201.5 84.5309C201.482 135.286 156.536 176.5 101 176.5C45.4531 176.5 0.5 135.27 0.5 84.5C0.5 59.0863 9.50213 40.115 25.3933 27.484C41.302 14.8392 64.1766 8.5 92 8.5C149.347 8.5 196.025 40.3951 201.5 84.5309Z" stroke="black"/>
<g filter="url(#filter0_d_13_23)">
<path d="M48.96 142C48.16 142 47.76 141.6 47.76 140.8V88.72C47.76 87.984 48.032 87.344 48.576 86.8L56.544 78.784C57.088 78.272 57.728 78.016 58.464 78.016H69.456C70.192 78.016 70.832 78.272 71.376 78.784L79.44 86.896H81.696L89.76 78.784C90.304 78.272 90.944 78.016 91.68 78.016H102.624C103.392 78.016 104.032 78.272 104.544 78.784L112.56 86.8C113.104 87.344 113.376 87.984 113.376 88.72V140.8C113.376 141.6 112.976 142 112.176 142H98.544C97.744 142 97.344 141.6 97.344 140.8V90.784H88.56V140.8C88.56 141.6 88.16 142 87.36 142H73.776C72.976 142 72.576 141.6 72.576 140.8V90.784H63.744V140.8C63.744 141.6 63.344 142 62.544 142H48.96ZM136.916 142C136.18 142 135.54 141.728 134.996 141.184L125.396 131.584C124.852 131.072 124.58 130.432 124.58 129.664V101.536C124.58 100.768 124.852 100.128 125.396 99.616L134.996 90.016C135.54 89.472 136.18 89.2 136.916 89.2H151.46C152.228 89.2 152.868 89.472 153.38 90.016L162.98 99.616C163.524 100.128 163.796 100.768 163.796 101.536V129.664C163.796 130.432 163.524 131.072 162.98 131.584L153.38 141.184C152.868 141.728 152.228 142 151.46 142H136.916ZM142.532 130.816H145.892C146.916 130.816 147.62 130.608 148.004 130.192C148.388 129.776 148.58 129.04 148.58 127.984V103.216C148.58 102.16 148.388 101.424 148.004 101.008C147.62 100.592 146.916 100.384 145.892 100.384H142.532C141.476 100.384 140.756 100.592 140.372 101.008C139.988 101.424 139.796 102.16 139.796 103.216V127.984C139.796 129.04 139.988 129.776 140.372 130.192C140.756 130.608 141.476 130.816 142.532 130.816ZM187.315 142C186.547 142 185.907 141.728 185.395 141.184L175.795 131.584C175.251 131.072 174.979 130.432 174.979 129.664V90.4C174.979 89.6 175.379 89.2 176.179 89.2H188.995C189.795 89.2 190.195 89.6 190.195 90.4V127.744C190.195 129.248 190.931 130 192.403 130H198.979V90.4C198.979 89.6 199.379 89.2 200.179 89.2H212.995C213.795 89.2 214.195 89.6 214.195 90.4V140.8C214.195 141.6 213.795 142 212.995 142H187.315ZM225.176 142C224.376 142 223.976 141.6 223.976 140.8V131.776C223.976 131.36 223.992 131.024 224.024 130.768C224.088 130.512 224.28 130.304 224.6 130.144L237.176 124.384V115.84L224.792 108.16C224.248 107.84 223.976 107.36 223.976 106.72V89.104C223.976 88.592 224.008 88.224 224.072 88C224.136 87.744 224.376 87.472 224.792 87.184L237.416 78.64C237.736 78.448 238.024 78.304 238.28 78.208C238.568 78.08 238.92 78.016 239.336 78.016H252.296C253.096 78.016 253.496 78.416 253.496 79.216V87.376C253.496 88.08 253.256 88.56 252.776 88.816L240.2 94V102.88L252.776 110.08C253.256 110.304 253.496 110.816 253.496 111.616V132.496C253.496 132.752 253.448 133.024 253.352 133.312C253.288 133.6 253.128 133.808 252.872 133.936L237.8 141.424C237.608 141.52 237.368 141.648 237.08 141.808C236.824 141.936 236.568 142 236.312 142H225.176ZM279.173 142C278.533 142 277.893 141.792 277.253 141.376L269.429 136.096L264.053 127.456C263.829 127.04 263.637 126.768 263.477 126.64C263.317 126.48 263.237 126.16 263.237 125.68V105.52C263.237 105.04 263.301 104.72 263.429 104.56C263.557 104.4 263.765 104.112 264.053 103.696L268.949 95.536L277.253 89.824C277.541 89.632 277.829 89.488 278.117 89.392C278.405 89.264 278.757 89.2 279.173 89.2H287.477C288.277 89.2 288.677 89.6 288.677 90.4V99.376C288.677 99.632 288.645 99.904 288.581 100.192C288.549 100.48 288.405 100.704 288.149 100.864L282.677 103.6L278.453 109.12V121.936L282.917 127.024L288.149 130.336C288.469 130.528 288.629 130.768 288.629 131.056C288.661 131.312 288.677 131.568 288.677 131.824V140.8C288.677 141.6 288.277 142 287.477 142H279.173ZM299.46 142C298.66 142 298.26 141.6 298.26 140.8V90.4C298.26 89.6 298.66 89.2 299.46 89.2H306.756C307.364 89.2 307.892 89.472 308.34 90.016L313.044 95.44L318.276 89.776C318.628 89.392 319.076 89.2 319.62 89.2H324.804C325.604 89.2 326.004 89.6 326.004 90.4V100.72C326.004 101.232 325.972 101.584 325.908 101.776C325.844 101.936 325.668 102.112 325.38 102.304L313.476 111.088V140.8C313.476 141.6 313.076 142 312.276 142H299.46ZM343.729 142C342.993 142 342.353 141.728 341.809 141.184L332.209 131.584C331.665 131.072 331.393 130.432 331.393 129.664V101.536C331.393 100.768 331.665 100.128 332.209 99.616L341.809 90.016C342.353 89.472 342.993 89.2 343.729 89.2H358.273C359.041 89.2 359.681 89.472 360.193 90.016L369.793 99.616C370.337 100.128 370.609 100.768 370.609 101.536V129.664C370.609 130.432 370.337 131.072 369.793 131.584L360.193 141.184C359.681 141.728 359.041 142 358.273 142H343.729ZM349.345 130.816H352.705C353.729 130.816 354.433 130.608 354.817 130.192C355.201 129.776 355.393 129.04 355.393 127.984V103.216C355.393 102.16 355.201 101.424 354.817 101.008C354.433 100.592 353.729 100.384 352.705 100.384H349.345C348.289 100.384 347.569 100.592 347.185 101.008C346.801 101.424 346.609 102.16 346.609 103.216V127.984C346.609 129.04 346.801 129.776 347.185 130.192C347.569 130.608 348.289 130.816 349.345 130.816ZM382.415 142C381.615 142 381.215 141.6 381.215 140.8V79.216C381.215 78.416 381.615 78.016 382.415 78.016H395.231C396.031 78.016 396.431 78.416 396.431 79.216V140.8C396.431 141.6 396.031 142 395.231 142H382.415ZM407.634 142C406.834 142 406.434 141.6 406.434 140.8V79.216C406.434 78.416 406.834 78.016 407.634 78.016H420.45C421.25 78.016 421.65 78.416 421.65 79.216V140.8C421.65 141.6 421.25 142 420.45 142H407.634Z" fill="#A4A6D2"/>
</g>
<path d="M517.5 152.318C517.5 159.051 515.694 165.098 512.104 169.453C508.525 173.795 503.135 176.5 495.856 176.5C481.259 176.5 469.5 165.635 469.5 152.318C469.5 148.986 470.295 147.14 471.583 146.001C472.903 144.833 474.831 144.319 477.33 143.878C477.904 143.776 478.503 143.68 479.125 143.579C483.87 142.813 489.947 141.831 496.163 136.984C500.007 133.987 503.238 132.666 505.903 132.515C508.546 132.365 510.691 133.363 512.398 135.142C514.117 136.934 515.397 139.526 516.245 142.54C517.092 145.55 517.5 148.948 517.5 152.318Z" fill="#7D7FAA"/>
<path d="M517.5 152.318C517.5 159.051 515.694 165.098 512.104 169.453C508.525 173.795 503.135 176.5 495.856 176.5C481.259 176.5 469.5 165.635 469.5 152.318C469.5 148.986 470.295 147.14 471.583 146.001C472.903 144.833 474.831 144.319 477.33 143.878C477.904 143.776 478.503 143.68 479.125 143.579C483.87 142.813 489.947 141.831 496.163 136.984C500.007 133.987 503.238 132.666 505.903 132.515C508.546 132.365 510.691 133.363 512.398 135.142C514.117 136.934 515.397 139.526 516.245 142.54C517.092 145.55 517.5 148.948 517.5 152.318Z" fill="black" fill-opacity="0.2"/>
<path d="M517.5 152.318C517.5 159.051 515.694 165.098 512.104 169.453C508.525 173.795 503.135 176.5 495.856 176.5C481.259 176.5 469.5 165.635 469.5 152.318C469.5 148.986 470.295 147.14 471.583 146.001C472.903 144.833 474.831 144.319 477.33 143.878C477.904 143.776 478.503 143.68 479.125 143.579C483.87 142.813 489.947 141.831 496.163 136.984C500.007 133.987 503.238 132.666 505.903 132.515C508.546 132.365 510.691 133.363 512.398 135.142C514.117 136.934 515.397 139.526 516.245 142.54C517.092 145.55 517.5 148.948 517.5 152.318Z" stroke="black"/>
<path d="M178.5 170C178.5 172.318 177.419 174.567 175.381 176.657C173.34 178.75 170.364 180.657 166.646 182.269C159.212 185.493 148.908 187.5 137.5 187.5C126.092 187.5 115.788 185.493 108.354 182.269C104.636 180.657 101.66 178.75 99.6192 176.657C97.5811 174.567 96.5 172.318 96.5 170C96.5 167.682 97.5811 165.433 99.6192 163.343C101.66 161.25 104.636 159.343 108.354 157.731C115.788 154.507 126.092 152.5 137.5 152.5C148.908 152.5 159.212 154.507 166.646 157.731C170.364 159.343 173.34 161.25 175.381 163.343C177.419 165.433 178.5 167.682 178.5 170Z" fill="#646688" stroke="black"/>
<path d="M392.5 170C392.5 172.318 391.419 174.567 389.381 176.657C387.34 178.75 384.364 180.657 380.646 182.269C373.212 185.493 362.908 187.5 351.5 187.5C340.092 187.5 329.788 185.493 322.354 182.269C318.636 180.657 315.66 178.75 313.619 176.657C311.581 174.567 310.5 172.318 310.5 170C310.5 167.682 311.581 165.433 313.619 163.343C315.66 161.25 318.636 159.343 322.354 157.731C329.788 154.507 340.092 152.5 351.5 152.5C362.908 152.5 373.212 154.507 380.646 157.731C384.364 159.343 387.34 161.25 389.381 163.343C391.419 165.433 392.5 167.682 392.5 170Z" fill="#646688" stroke="black"/>
<line x1="169.822" y1="180.59" x2="155.888" y2="176.367" stroke="black"/>
<line x1="173.624" y1="178.102" x2="159.964" y2="173.06" stroke="black"/>
<line x1="177.486" y1="174.511" x2="163.827" y2="169.469" stroke="black"/>
<path d="M392.5 170C392.5 172.318 391.419 174.567 389.381 176.657C387.34 178.75 384.364 180.657 380.646 182.269C373.212 185.493 362.908 187.5 351.5 187.5C340.092 187.5 329.788 185.493 322.354 182.269C318.636 180.657 315.66 178.75 313.619 176.657C311.581 174.567 310.5 172.318 310.5 170C310.5 167.682 311.581 165.433 313.619 163.343C315.66 161.25 318.636 159.343 322.354 157.731C329.788 154.507 340.092 152.5 351.5 152.5C362.908 152.5 373.212 154.507 380.646 157.731C384.364 159.343 387.34 161.25 389.381 163.343C391.419 165.433 392.5 167.682 392.5 170Z" fill="#646688" stroke="black"/>
<line x1="383.822" y1="180.59" x2="369.888" y2="176.367" stroke="black"/>
<line x1="387.624" y1="178.102" x2="373.964" y2="173.06" stroke="black"/>
<line x1="391.486" y1="174.511" x2="377.827" y2="169.469" stroke="black"/>
<defs>
<filter id="filter0_d_13_23" x="43.76" y="78.016" width="381.89" height="71.984" filterUnits="userSpaceOnUse" color-interpolation-filters="sRGB">
<feFlood flood-opacity="0" result="BackgroundImageFix"/>
<feColorMatrix in="SourceAlpha" type="matrix" values="0 0 0 0 0 0 0 0 0 0 0 0 0 0 0 0 0 0 127 0" result="hardAlpha"/>
<feOffset dy="4"/>
<feGaussianBlur stdDeviation="2"/>
<feComposite in2="hardAlpha" operator="out"/>
<feColorMatrix type="matrix" values="0 0 0 0 0 0 0 0 0 0 0 0 0 0 0 0 0 0 0.25 0"/>
<feBlend mode="normal" in2="BackgroundImageFix" result="effect1_dropShadow_13_23"/>
<feBlend mode="normal" in="SourceGraphic" in2="effect1_dropShadow_13_23" result="shape"/>
</filter>
</defs>
</svg>
