<svg width="254" height="80" viewBox="0 0 254 80" fill="none" xmlns="http://www.w3.org/2000/svg">
<path d="M14.2882 18.3976C16.5154 14.2009 19.8891 10.7232 24.0163 8.36963C29.4735 5.25765 35.8999 4.30738 42.0242 5.70684L49.204 7.3475L62.3199 10.6382C63.0137 10.8123 63.7029 10.3384 63.7887 9.62821C63.8041 9.50027 63.9407 9.42534 64.0569 9.48103L72.7829 13.6622C73.1837 13.8542 73.5996 14.0131 74.0264 14.1371L75.5801 14.5887C78.8116 15.5279 82.1867 15.873 85.5414 15.6072L102.844 14.2361C104.979 14.0669 106.753 12.5201 107.21 10.4274C107.45 9.33258 108.153 8.39574 109.137 7.85992L110.266 7.24533C112.318 6.12822 114.804 6.16499 116.822 7.34229L126.339 12.8941C130.502 15.3228 135.236 16.6026 140.055 16.6026H143.079C150.102 16.6026 156.982 18.5796 162.934 22.3074L169.213 26.2405C173.174 28.7216 176.848 31.6346 180.166 34.9258L188.234 42.9269C192.85 47.5045 197.984 51.5274 203.533 54.9139L209.315 58.4429C209.763 58.7162 210.233 58.9519 210.72 59.1475C219.378 62.6269 216.889 75.5 207.557 75.5H180.015H49.0556C32.3225 75.5 17.4409 64.8611 12.0268 49.0282L11.1541 46.476C8.21217 37.8726 8.96123 28.4354 13.2235 20.4038L14.2882 18.3976Z" fill="#7D7FAA"/>
<path d="M14.2882 18.3976C16.5154 14.2009 19.8891 10.7232 24.0163 8.36963C29.4735 5.25765 35.8999 4.30738 42.0242 5.70684L49.204 7.3475L62.3199 10.6382C63.0137 10.8123 63.7029 10.3384 63.7887 9.62821C63.8041 9.50027 63.9407 9.42534 64.0569 9.48103L72.7829 13.6622C73.1837 13.8542 73.5996 14.0131 74.0264 14.1371L75.5801 14.5887C78.8116 15.5279 82.1867 15.873 85.5414 15.6072L102.844 14.2361C104.979 14.0669 106.753 12.5201 107.21 10.4274C107.45 9.33258 108.153 8.39574 109.137 7.85992L110.266 7.24533C112.318 6.12822 114.804 6.16499 116.822 7.34229L126.339 12.8941C130.502 15.3228 135.236 16.6026 140.055 16.6026H143.079C150.102 16.6026 156.982 18.5796 162.934 22.3074L169.213 26.2405C173.174 28.7216 176.848 31.6346 180.166 34.9258L188.234 42.9269C192.85 47.5045 197.984 51.5274 203.533 54.9139L209.315 58.4429C209.763 58.7162 210.233 58.9519 210.72 59.1475C219.378 62.6269 216.889 75.5 207.557 75.5H180.015H49.0556C32.3225 75.5 17.4409 64.8611 12.0268 49.0282L11.1541 46.476C8.21217 37.8726 8.96123 28.4354 13.2235 20.4038L14.2882 18.3976Z" fill="black" fill-opacity="0.2"/>
<path d="M14.2882 18.3976C16.5154 14.2009 19.8891 10.7232 24.0163 8.36963C29.4735 5.25765 35.8999 4.30738 42.0242 5.70684L49.204 7.3475L62.3199 10.6382C63.0137 10.8123 63.7029 10.3384 63.7887 9.62821C63.8041 9.50027 63.9407 9.42534 64.0569 9.48103L72.7829 13.6622C73.1837 13.8542 73.5996 14.0131 74.0264 14.1371L75.5801 14.5887C78.8116 15.5279 82.1867 15.873 85.5414 15.6072L102.844 14.2361C104.979 14.0669 106.753 12.5201 107.21 10.4274C107.45 9.33258 108.153 8.39574 109.137 7.85992L110.266 7.24533C112.318 6.12822 114.804 6.16499 116.822 7.34229L126.339 12.8941C130.502 15.3228 135.236 16.6026 140.055 16.6026H143.079C150.102 16.6026 156.982 18.5796 162.934 22.3074L169.213 26.2405C173.174 28.7216 176.848 31.6346 180.166 34.9258L188.234 42.9269C192.85 47.5045 197.984 51.5274 203.533 54.9139L209.315 58.4429C209.763 58.7162 210.233 58.9519 210.72 59.1475C219.378 62.6269 216.889 75.5 207.557 75.5H180.015H49.0556C32.3225 75.5 17.4409 64.8611 12.0268 49.0282L11.1541 46.476C8.21217 37.8726 8.96123 28.4354 13.2235 20.4038L14.2882 18.3976Z" stroke="black"/>
<path d="M148.5 17C148.5 21.4986 146.034 25.612 141.966 28.6187C137.899 31.6253 132.255 33.5 126 33.5C119.745 33.5 114.101 31.6253 110.034 28.6187C105.966 25.612 103.5 21.4986 103.5 17C103.5 12.5014 105.966 8.38795 110.034 5.38127C114.101 2.37469 119.745 0.5 126 0.5C132.255 0.5 137.899 2.37469 141.966 5.38127C146.034 8.38795 148.5 12.5014 148.5 17Z" fill="#7D7FAA"/>
<path d="M148.5 17C148.5 21.4986 146.034 25.612 141.966 28.6187C137.899 31.6253 132.255 33.5 126 33.5C119.745 33.5 114.101 31.6253 110.034 28.6187C105.966 25.612 103.5 21.4986 103.5 17C103.5 12.5014 105.966 8.38795 110.034 5.38127C114.101 2.37469 119.745 0.5 126 0.5C132.255 0.5 137.899 2.37469 141.966 5.38127C146.034 8.38795 148.5 12.5014 148.5 17Z" fill="black" fill-opacity="0.2"/>
<path d="M148.5 17C148.5 21.4986 146.034 25.612 141.966 28.6187C137.899 31.6253 132.255 33.5 126 33.5C119.745 33.5 114.101 31.6253 110.034 28.6187C105.966 25.612 103.5 21.4986 103.5 17C103.5 12.5014 105.966 8.38795 110.034 5.38127C114.101 2.37469 119.745 0.5 126 0.5C132.255 0.5 137.899 2.37469 141.966 5.38127C146.034 8.38795 148.5 12.5014 148.5 17Z" stroke="black"/>
<path d="M86.5 36.0751C86.4819 57.8126 67.2779 75.5 43.5 75.5C19.7109 75.5 0.5 57.796 0.5 36.0444C0.5 25.1399 4.34757 17.0324 11.1144 11.6381C17.8985 6.23005 27.6789 3.5 39.6238 3.5C64.2347 3.5 84.1563 17.2165 86.5 36.0751Z" fill="#7D7FAA"/>
<path d="M86.5 36.0751C86.4819 57.8126 67.2779 75.5 43.5 75.5C19.7109 75.5 0.5 57.796 0.5 36.0444C0.5 25.1399 4.34757 17.0324 11.1144 11.6381C17.8985 6.23005 27.6789 3.5 39.6238 3.5C64.2347 3.5 84.1563 17.2165 86.5 36.0751Z" fill="black" fill-opacity="0.2"/>
<path d="M86.5 36.0751C86.4819 57.8126 67.2779 75.5 43.5 75.5C19.7109 75.5 0.5 57.796 0.5 36.0444C0.5 25.1399 4.34757 17.0324 11.1144 11.6381C17.8985 6.23005 27.6789 3.5 39.6238 3.5C64.2347 3.5 84.1563 17.2165 86.5 36.0751Z" stroke="black"/>
<path d="M217.5 65.0304C217.5 67.9802 216.736 70.6024 215.247 72.4759C213.77 74.3346 211.545 75.5 208.51 75.5C202.406 75.5 197.5 70.7902 197.5 65.0304C197.5 63.5864 197.832 62.8564 198.303 62.4246C198.802 61.9673 199.549 61.7486 200.623 61.5519C200.865 61.5076 201.12 61.465 201.385 61.4206C203.42 61.0806 206.098 60.633 208.824 58.4287C210.447 57.1161 211.775 56.5681 212.833 56.506C213.866 56.4454 214.704 56.8445 215.387 57.5821C216.082 58.3337 216.615 59.4394 216.972 60.7554C217.327 62.066 217.5 63.552 217.5 65.0304Z" fill="#7D7FAA"/>
<path d="M217.5 65.0304C217.5 67.9802 216.736 70.6024 215.247 72.4759C213.77 74.3346 211.545 75.5 208.51 75.5C202.406 75.5 197.5 70.7902 197.5 65.0304C197.5 63.5864 197.832 62.8564 198.303 62.4246C198.802 61.9673 199.549 61.7486 200.623 61.5519C200.865 61.5076 201.12 61.465 201.385 61.4206C203.42 61.0806 206.098 60.633 208.824 58.4287C210.447 57.1161 211.775 56.5681 212.833 56.506C213.866 56.4454 214.704 56.8445 215.387 57.5821C216.082 58.3337 216.615 59.4394 216.972 60.7554C217.327 62.066 217.5 63.552 217.5 65.0304Z" fill="black" fill-opacity="0.2"/>
<path d="M217.5 65.0304C217.5 67.9802 216.736 70.6024 215.247 72.4759C213.77 74.3346 211.545 75.5 208.51 75.5C202.406 75.5 197.5 70.7902 197.5 65.0304C197.5 63.5864 197.832 62.8564 198.303 62.4246C198.802 61.9673 199.549 61.7486 200.623 61.5519C200.865 61.5076 201.12 61.465 201.385 61.4206C203.42 61.0806 206.098 60.633 208.824 58.4287C210.447 57.1161 211.775 56.5681 212.833 56.506C213.866 56.4454 214.704 56.8445 215.387 57.5821C216.082 58.3337 216.615 59.4394 216.972 60.7554C217.327 62.066 217.5 63.552 217.5 65.0304Z" stroke="black"/>
<path d="M76.5 72.5C76.5 73.3614 76.0832 74.2272 75.2346 75.0631C74.3842 75.9008 73.1281 76.6782 71.5356 77.3418C68.3528 78.6679 63.921 79.5 59 79.5C54.079 79.5 49.6472 78.6679 46.4644 77.3418C44.8719 76.6782 43.6158 75.9008 42.7654 75.0631C41.9168 74.2272 41.5 73.3614 41.5 72.5C41.5 71.6386 41.9168 70.7728 42.7654 69.9369C43.6158 69.0992 44.8719 68.3218 46.4644 67.6582C49.6472 66.3321 54.079 65.5 59 65.5C63.921 65.5 68.3528 66.3321 71.5356 67.6582C73.1281 68.3218 74.3842 69.0992 75.2346 69.9369C76.0832 70.7728 76.5 71.6386 76.5 72.5Z" fill="#646688" stroke="black"/>
<path d="M168.5 72.5C168.5 73.3614 168.083 74.2272 167.235 75.0631C166.384 75.9008 165.128 76.6782 163.536 77.3418C160.353 78.6679 155.921 79.5 151 79.5C146.079 79.5 141.647 78.6679 138.464 77.3418C136.872 76.6782 135.616 75.9008 134.765 75.0631C133.917 74.2272 133.5 73.3614 133.5 72.5C133.5 71.6386 133.917 70.7728 134.765 69.9369C135.616 69.0992 136.872 68.3218 138.464 67.6582C141.647 66.3321 146.079 65.5 151 65.5C155.921 65.5 160.353 66.3321 163.536 67.6582C165.128 68.3218 166.384 69.0992 167.235 69.9369C168.083 70.7728 168.5 71.6386 168.5 72.5Z" fill="#646688" stroke="black"/>
<line x1="72.8652" y1="77.09" x2="66.8797" y2="75.2758" stroke="black"/>
<line x1="74.4826" y1="76.0156" x2="68.6151" y2="73.85" stroke="black"/>
<line x1="76.1418" y1="74.4732" x2="70.2743" y2="72.3075" stroke="black"/>
<path d="M168.5 72.5C168.5 73.3614 168.083 74.2272 167.235 75.0631C166.384 75.9008 165.128 76.6782 163.536 77.3418C160.353 78.6679 155.921 79.5 151 79.5C146.079 79.5 141.647 78.6679 138.464 77.3418C136.872 76.6782 135.616 75.9008 134.765 75.0631C133.917 74.2272 133.5 73.3614 133.5 72.5C133.5 71.6386 133.917 70.7728 134.765 69.9369C135.616 69.0992 136.872 68.3218 138.464 67.6582C141.647 66.3321 146.079 65.5 151 65.5C155.921 65.5 160.353 66.3321 163.536 67.6582C165.128 68.3218 166.384 69.0992 167.235 69.9369C168.083 70.7728 168.5 71.6386 168.5 72.5Z" fill="#646688" stroke="black"/>
<line x1="164.791" y1="77.09" x2="158.805" y2="75.2758" stroke="black"/>
<line x1="166.407" y1="76.0156" x2="160.54" y2="73.85" stroke="black"/>
<line x1="168.067" y1="74.4732" x2="162.199" y2="72.3075" stroke="black"/>
<path d="M16.4725 60C16.1142 60 15.935 59.8208 15.935 59.4625V55.4205C15.935 55.2342 15.9422 55.0837 15.9565 54.969C15.9852 54.8543 16.0712 54.7612 16.2145 54.6895L21.8475 52.1095V48.2825L16.3005 44.8425C16.0568 44.6992 15.935 44.4842 15.935 44.1975V36.307C15.935 36.0777 15.9493 35.9128 15.978 35.8125C16.0067 35.6978 16.1142 35.576 16.3005 35.447L21.955 31.62C22.0983 31.534 22.2273 31.4695 22.342 31.4265C22.471 31.3692 22.6287 31.3405 22.815 31.3405H28.62C28.9783 31.3405 29.1575 31.5197 29.1575 31.878V35.533C29.1575 35.8483 29.05 36.0633 28.835 36.178L23.202 38.5V42.4775L28.835 45.7025C29.05 45.8028 29.1575 46.0322 29.1575 46.3905V55.743C29.1575 55.8577 29.136 55.9795 29.093 56.1085C29.0643 56.2375 28.9927 56.3307 28.878 56.388L22.127 59.742C22.041 59.785 21.9335 59.8423 21.8045 59.914C21.6898 59.9713 21.5752 60 21.4605 60H16.4725ZM39.0458 60C38.7162 60 38.4295 59.8782 38.1858 59.6345L33.8858 55.3345C33.6422 55.1052 33.5203 54.8185 33.5203 54.4745V41.8755C33.5203 41.5315 33.6422 41.2448 33.8858 41.0155L38.1858 36.7155C38.4295 36.4718 38.7162 36.35 39.0458 36.35H45.5603C45.9043 36.35 46.191 36.4718 46.4203 36.7155L50.7203 41.0155C50.964 41.2448 51.0858 41.5315 51.0858 41.8755V54.4745C51.0858 54.8185 50.964 55.1052 50.7203 55.3345L46.4203 59.6345C46.191 59.8782 45.9043 60 45.5603 60H39.0458ZM41.5613 54.9905H43.0663C43.525 54.9905 43.8403 54.8973 44.0123 54.711C44.1843 54.5247 44.2703 54.195 44.2703 53.722V42.628C44.2703 42.155 44.1843 41.8253 44.0123 41.639C43.8403 41.4527 43.525 41.3595 43.0663 41.3595H41.5613C41.0883 41.3595 40.7658 41.4527 40.5938 41.639C40.4218 41.8253 40.3358 42.155 40.3358 42.628V53.722C40.3358 54.195 40.4218 54.5247 40.5938 54.711C40.7658 54.8973 41.0883 54.9905 41.5613 54.9905ZM56.6321 60C56.2738 60 56.0946 59.8208 56.0946 59.4625V31.878C56.0946 31.5197 56.2738 31.3405 56.6321 31.3405H62.3726C62.731 31.3405 62.9101 31.5197 62.9101 31.878V37.7905L63.9851 36.7155C64.2145 36.4718 64.5011 36.35 64.8451 36.35H68.1346C68.4643 36.35 68.751 36.4718 68.9946 36.7155L73.2946 41.0155C73.5383 41.2448 73.6601 41.5315 73.6601 41.8755V54.4745C73.6601 54.8185 73.5383 55.1052 73.2946 55.3345L68.9946 59.6345C68.751 59.8782 68.4643 60 68.1346 60H56.6321ZM62.9101 54.9905H65.6191C66.0921 54.9905 66.4146 54.8973 66.5866 54.711C66.7586 54.5247 66.8446 54.195 66.8446 53.722V42.628C66.8446 42.155 66.7586 41.8253 66.5866 41.639C66.4146 41.4527 66.0921 41.3595 65.6191 41.3595H64.1141C63.6555 41.3595 63.3401 41.4527 63.1681 41.639C62.9961 41.8253 62.9101 42.155 62.9101 42.628V54.9905ZM79.2239 60C78.8656 60 78.6864 59.8208 78.6864 59.4625V36.8875C78.6864 36.5292 78.8656 36.35 79.2239 36.35H82.4919C82.7643 36.35 83.0008 36.4718 83.2014 36.7155L85.3084 39.145L87.6519 36.608C87.8096 36.436 88.0103 36.35 88.2539 36.35H90.5759C90.9343 36.35 91.1134 36.5292 91.1134 36.8875V41.51C91.1134 41.7393 91.0991 41.897 91.0704 41.983C91.0418 42.0547 90.9629 42.1335 90.8339 42.2195L85.5019 46.154V59.4625C85.5019 59.8208 85.3228 60 84.9644 60H79.2239ZM103.31 60C103.166 60 103.009 59.9785 102.837 59.9355C102.679 59.8925 102.528 59.8567 102.385 59.828L98.5582 58.882L94.1722 57.42C93.7422 57.2767 93.5272 56.861 93.5272 56.173V41.8755C93.5272 41.5315 93.649 41.2448 93.8927 41.0155L98.1927 36.7155C98.4363 36.4718 98.723 36.35 99.0527 36.35H105.933C106.262 36.35 106.549 36.4718 106.793 36.7155L111.093 41.0155C111.336 41.2448 111.458 41.5315 111.458 41.8755V50.6905H99.9127L99.7622 53.55L102.815 54.5605L108.298 54.9475C108.541 54.9905 108.663 55.1553 108.663 55.442V59.4625C108.663 59.8208 108.484 60 108.126 60H103.31ZM102.45 47.315H102.858C103.56 47.315 104.119 47.0498 104.535 46.5195C104.965 45.9892 105.18 45.2725 105.18 44.3695V43.9395C105.18 43.0508 104.965 42.3413 104.535 41.811C104.119 41.2807 103.56 41.0155 102.858 41.0155H102.428C101.74 41.0155 101.188 41.2807 100.773 41.811C100.371 42.3413 100.171 43.0508 100.171 43.9395V44.3695C100.171 45.2725 100.371 45.9892 100.773 46.5195C101.188 47.0498 101.747 47.315 102.45 47.315ZM123.316 60C122.957 60 122.778 59.8208 122.778 59.4625V31.878C122.778 31.5197 122.957 31.3405 123.316 31.3405H135.528C135.872 31.3405 136.158 31.4552 136.388 31.6845L140.688 35.9845C140.931 36.2282 141.053 36.5148 141.053 36.8445V59.4625C141.053 59.8208 140.874 60 140.516 60H134.431C134.073 60 133.894 59.8208 133.894 59.4625V37.0595H129.938V59.4625C129.938 59.8208 129.759 60 129.4 60H123.316ZM151.585 60C151.255 60 150.969 59.8782 150.725 59.6345L146.425 55.3345C146.181 55.1052 146.059 54.8185 146.059 54.4745V41.8755C146.059 41.5315 146.181 41.2448 146.425 41.0155L150.725 36.7155C150.969 36.4718 151.255 36.35 151.585 36.35H158.099C158.443 36.35 158.73 36.4718 158.959 36.7155L163.259 41.0155C163.503 41.2448 163.625 41.5315 163.625 41.8755V54.4745C163.625 54.8185 163.503 55.1052 163.259 55.3345L158.959 59.6345C158.73 59.8782 158.443 60 158.099 60H151.585ZM154.1 54.9905H155.605C156.064 54.9905 156.379 54.8973 156.551 54.711C156.723 54.5247 156.809 54.195 156.809 53.722V42.628C156.809 42.155 156.723 41.8253 156.551 41.639C156.379 41.4527 156.064 41.3595 155.605 41.3595H154.1C153.627 41.3595 153.305 41.4527 153.133 41.639C152.961 41.8253 152.875 42.155 152.875 42.628V53.722C152.875 54.195 152.961 54.5247 153.133 54.711C153.305 54.8973 153.627 54.9905 154.1 54.9905ZM168.505 60C168.146 60 167.967 59.8208 167.967 59.4625V55.9795C167.967 55.6498 168.075 55.4348 168.29 55.3345L172.676 52.733V50.497L168.29 48.132C168.075 48.003 167.967 47.7808 167.967 47.4655V40.607C167.967 40.4493 167.989 40.3203 168.032 40.22C168.089 40.1197 168.168 40.0337 168.268 39.962L172.848 36.608C173.005 36.4933 173.134 36.4217 173.235 36.393C173.335 36.3643 173.435 36.35 173.536 36.35H178.76C179.119 36.35 179.298 36.5292 179.298 36.8875V40.263C179.298 40.5067 179.276 40.6715 179.233 40.7575C179.205 40.8435 179.133 40.9152 179.018 40.9725L174.955 43.1655V45.6595L179.298 47.8095C179.541 47.9098 179.663 48.1248 179.663 48.4545V55.055C179.663 55.4133 179.541 55.7 179.298 55.915L174.718 59.7205C174.489 59.9068 174.202 60 173.858 60H168.505Z" fill="white"/>
</svg>
